<svg t="1631951624703" class="icon" viewBox="0 0 1024 1024" version="1.1" xmlns="http://www.w3.org/2000/svg" p-id="9366"
     width="22" height="22">
    <path d="M754.7 745.6H674c-22.6 0-41-18.4-41-41s18.4-41 41-41h80.7c67 0 121.5-54.5 121.5-121.5 0-56.6-40.2-106.5-95.6-118.7l-39.9-8.8 8.6-39.9c2.8-13.1 4.3-26.6 4.3-40 0-104.2-84.8-189-189-189-69.9 0-133.8 38.3-166.8 100.1L383 273.3l-30.5-6.9c-7-1.6-14.3-2.4-21.6-2.4-53.5 0-97 43.5-97 97 0 8.8 1.2 17.5 3.5 25.9l8.8 32-29.4 15.3c-40.6 21.2-65.8 62.5-65.8 107.9 0 67 54.5 121.5 121.5 121.5H372c22.6 0 41 18.4 41 41s-18.4 41-41 41h-99.4c-54.2 0-105.2-21.2-143.8-59.7s-59.7-89.6-59.7-143.8c0-37.9 10.6-74.9 30.6-107 13.9-22.4 32-41.8 53.1-57.2-0.5-5.6-0.8-11.2-0.8-16.8 0-98.7 80.3-179 179-179 3.2 0 6.3 0.1 9.5 0.2 50.2-73.8 133.6-118.6 224.1-118.6C637 63.7 705 91.9 756.2 143s79.4 119.2 79.4 191.6c0 6.8-0.3 13.7-0.8 20.5 29.9 12.9 56.7 33 77.6 58.6 29.5 36.2 45.8 81.8 45.8 128.3 0 54.2-21.2 105.2-59.7 143.8s-89.6 59.8-143.8 59.8z"
          p-id="9367"></path>
    <path d="M639.6 792.7c-15.9-15.9-42-15.9-57.9 0L559 815.5V581.2c0-22.5-18.4-40.9-40.9-40.9s-40.9 18.4-40.9 40.9v234.3l-22.8-22.8c-15.9-15.9-42-15.9-57.9 0-15.9 15.9-15.9 42 0 57.9l91 91c0.5 0.6 1 1.1 1.6 1.7 8 8 18.5 12 29 11.9 10.5 0 21-4 29-11.9 0.5-0.5 1.1-1.1 1.6-1.7l91-91c15.9-15.9 15.9-42-0.1-57.9z"
          p-id="9368"></path>
</svg>