<svg t="1639552490302" class="icon" viewBox="0 0 1024 1024" version="1.1" xmlns="http://www.w3.org/2000/svg" p-id="2953"
     width="20" height="20">
    <path d="M512 85.333c235.641 0 426.667 191.026 426.667 426.667 0 235.641-191.026 426.667-426.667 426.667C276.359 938.667 85.333 747.64 85.333 512 85.333 276.359 276.36 85.333 512 85.333z m0 64c-200.295 0-362.667 162.372-362.667 362.667 0 200.295 162.372 362.667 362.667 362.667 200.295 0 362.667-162.372 362.667-362.667 0-200.295-162.372-362.667-362.667-362.667zM640.222 618.89l45.255 45.255c-94.157 94.156-245.807 95.78-341.946 4.87l-5.008-4.87 45.255-45.255c69.37 69.37 180.961 70.785 252.054 4.247l4.39-4.247zM341.333 426.667c23.564 0 42.667 19.102 42.667 42.666C384 492.897 364.897 512 341.333 512s-42.666-19.103-42.666-42.667 19.102-42.666 42.666-42.666z m341.334 0c23.564 0 42.666 19.102 42.666 42.666 0 23.564-19.102 42.667-42.666 42.667C659.103 512 640 492.897 640 469.333s19.103-42.666 42.667-42.666z"
          p-id="2954"></path>
</svg>